<svg xmlns="http://www.w3.org/2000/svg" width="256" height="256" viewBox="0 0 100 100">
    <rect width="100" height="100" rx="20" fill="#002aa2">
    </rect>
    <path fill="#fff" d="M35.22 71.33L25.96 54.07L15.94 54.07L15.94 71.33L10.29 71.33L10.29 28.67L24.41 28.67Q31.62 28.67 35.50 31.95Q39.38 35.23 39.38 41.50L39.38 41.50Q39.38 45.49 37.23 48.45Q35.07 51.41 31.24 52.87L31.24 52.87L41.25 70.98L41.25 71.33L35.22 71.33ZM15.94 33.30L15.94 49.47L24.58 49.47Q28.77 49.47 31.25 47.30Q33.73 45.14 33.73 41.50L33.73 41.50Q33.73 37.55 31.37 35.44Q29.01 33.33 24.56 33.30L24.56 33.30L15.94 33.30ZM47.26 28.67L54.53 28.67L68.47 63.48L82.42 28.67L89.71 28.67L89.71 71.33L84.09 71.33L84.09 54.72L84.61 36.79L70.61 71.33L66.30 71.33L52.33 36.88L52.89 54.72L52.89 71.33L47.26 71.33L47.26 28.67Z">
    </path>
</svg>
